<svg viewBox="0 0 32 32" xmlns="http://www.w3.org/2000/svg"><g data-name="Layer 2"><path d="M24 29H8a3 3 0 0 1-3-3V16a1 1 0 0 1 2 0v10a1 1 0 0 0 1 1h16a1 1 0 0 0 1-1V16a1 1 0 0 1 2 0v10a3 3 0 0 1-3 3Z" fill="#233a95" class="fill-000000"></path><path d="M15 29h-5a1 1 0 0 1-1-1v-6a3 3 0 0 1 3-3h1a3 3 0 0 1 3 3v6a1 1 0 0 1-1 1Zm-4-2h3v-5a1 1 0 0 0-1-1h-1a1 1 0 0 0-1 1ZM25 17a4 4 0 0 1-4-4 1 1 0 0 1 2 0 2 2 0 0 0 4 0v-.76L24.38 7H7.62L5 12.24V13a2 2 0 0 0 4 0 1 1 0 0 1 2 0 4 4 0 0 1-8 0v-1a1 1 0 0 1 .11-.45l3-6A1 1 0 0 1 7 5h18a1 1 0 0 1 .89.55l3 6A1 1 0 0 1 29 12v1a4 4 0 0 1-4 4Z" fill="#233a95" class="fill-000000"></path><path d="M13 17a4 4 0 0 1-4-4 1 1 0 0 1 2 0 2 2 0 0 0 4 0 1 1 0 0 1 2 0 4 4 0 0 1-4 4Z" fill="#233a95" class="fill-000000"></path><path d="M19 17a4 4 0 0 1-4-4 1 1 0 0 1 2 0 2 2 0 0 0 4 0 1 1 0 0 1 2 0 4 4 0 0 1-4 4ZM22 22h-3a1 1 0 0 1 0-2h3a1 1 0 0 1 0 2Z" fill="#233a95" class="fill-000000"></path></g><path d="M0 0h32v32H0z" fill="none"></path></svg>